<svg xmlns="http://www.w3.org/2000/svg" xmlns:xlink="http://www.w3.org/1999/xlink" width="1400" zoomAndPan="magnify" height="300" preserveAspectRatio="xMidYMid meet" version="1.0"><defs><clipPath id="642667b437"><path d="M 0 0 L 541.074219 0 L 541.074219 212 L 0 212 Z M 0 0 " clip-rule="nonzero"/></clipPath><clipPath id="9e22568fa0"><path d="M 436.476562 0 L 1012.476562 0 L 1012.476562 212 L 436.476562 212 Z M 436.476562 0 " clip-rule="nonzero"/></clipPath><clipPath id="a99911753a"><path d="M 895.878906 0 L 1440 0 L 1440 212 L 895.878906 212 Z M 895.878906 0 " clip-rule="nonzero"/></clipPath><clipPath id="39dc665da6"><path d="M 1367.285156 0 L 1440 0 L 1440 212 L 1367.285156 212 Z M 1367.285156 0 " clip-rule="nonzero"/></clipPath></defs><rect x="-144" width="1728" fill="transparent" y="-80.999999" height="300" fill-opacity="1"/><rect x="-144" width="1728" fill="transparent" y="-80.999999" height="300" fill-opacity="1"/><g clip-path="url(#642667b437)"><path fill="#4b1870" d="M 292.167969 0.28125 L -34.863281 0.28125 C -27.589844 5.269531 -20.078125 10.140625 -15.230469 17.429688 C -1.398438 38.230469 -15.265625 67.898438 -4.707031 90.535156 C -4.148438 91.738281 -3.488281 92.945312 -2.433594 93.742188 C 2.503906 97.472656 8.078125 89.515625 14.085938 88.046875 C 21.621094 86.207031 27.277344 95.105469 28.648438 102.738281 C 30.015625 110.367188 30.445312 119.417969 36.894531 123.71875 C 45.308594 129.332031 57.136719 121.234375 59.820312 111.480469 C 62.5 101.726562 59.476562 91.457031 58.246094 81.414062 C 56.648438 68.390625 58.144531 54.992188 62.578125 42.640625 C 64.640625 36.886719 68.058594 30.734375 73.992188 29.265625 C 82.375 27.183594 89.566406 35.578125 93.054688 43.480469 C 104.023438 68.328125 101.585938 96.769531 98.941406 123.804688 C 97.765625 135.847656 96.585938 147.890625 95.410156 159.9375 C 93.710938 177.300781 93.527344 198.167969 107.855469 208.125 C 111.332031 210.542969 115.710938 212.058594 119.824219 211.058594 C 121.953125 210.539062 123.878906 209.386719 125.636719 208.078125 C 139.265625 197.964844 143.5625 179.234375 142.644531 162.289062 C 141.722656 145.339844 136.636719 128.828125 135.691406 111.878906 C 134.75 94.933594 138.984375 76.203125 152.570312 66.027344 C 165.109375 69.570312 161.632812 92.652344 174.035156 96.652344 C 181.550781 99.074219 188.847656 92.074219 192.265625 84.953125 C 199.273438 70.359375 198.894531 52.804688 207.261719 38.945312 C 211.558594 31.824219 220.457031 25.675781 227.800781 29.574219 C 231.121094 31.335938 233.195312 34.726562 235.867188 37.367188 C 240.363281 41.8125 246.863281 43.820312 253.148438 43.347656 C 259.433594 43.820312 265.933594 41.8125 270.429688 37.367188 C 273.101562 34.726562 275.175781 31.335938 278.496094 29.574219 C 285.839844 25.675781 294.742188 31.824219 299.039062 38.945312 C 307.402344 52.804688 307.023438 70.359375 314.03125 84.953125 C 317.449219 92.074219 324.746094 99.074219 332.261719 96.652344 C 344.664062 92.652344 341.1875 69.570312 353.726562 66.027344 C 367.3125 76.203125 371.546875 94.933594 370.605469 111.878906 C 369.660156 128.828125 364.574219 145.339844 363.652344 162.289062 C 362.734375 179.234375 367.03125 197.964844 380.660156 208.078125 C 382.417969 209.386719 384.34375 210.539062 386.472656 211.058594 C 390.585938 212.058594 394.964844 210.542969 398.441406 208.125 C 412.769531 198.167969 412.585938 177.300781 410.886719 159.9375 C 409.710938 147.890625 408.53125 135.847656 407.355469 123.804688 C 404.710938 96.769531 402.273438 68.328125 413.246094 43.480469 C 416.730469 35.578125 423.921875 27.183594 432.304688 29.265625 C 438.242188 30.734375 441.65625 36.886719 443.722656 42.640625 C 448.152344 54.992188 449.648438 68.390625 448.050781 81.414062 C 446.820312 91.457031 443.796875 101.726562 446.480469 111.480469 C 449.160156 121.234375 460.988281 129.332031 469.402344 123.71875 C 475.855469 119.417969 476.28125 110.367188 477.652344 102.738281 C 479.019531 95.105469 484.679688 86.207031 492.210938 88.046875 C 498.21875 89.515625 503.792969 97.472656 508.730469 93.742188 C 509.789062 92.945312 510.445312 91.738281 511.003906 90.535156 C 521.5625 67.898438 507.695312 38.230469 521.527344 17.429688 C 526.375 10.140625 533.886719 5.269531 541.160156 0.28125 Z M 292.167969 0.28125 " fill-opacity="1" fill-rule="nonzero"/></g><g clip-path="url(#9e22568fa0)"><path fill="#4b1870" d="M 763.570312 0.28125 L 436.539062 0.28125 C 443.8125 5.269531 451.328125 10.140625 456.175781 17.429688 C 470.003906 38.230469 456.140625 67.898438 466.695312 90.535156 C 467.253906 91.738281 467.914062 92.945312 468.96875 93.742188 C 473.90625 97.472656 479.480469 89.515625 485.492188 88.046875 C 493.023438 86.207031 498.679688 95.105469 500.050781 102.738281 C 501.417969 110.367188 501.847656 119.417969 508.296875 123.71875 C 516.710938 129.332031 528.539062 121.234375 531.222656 111.480469 C 533.902344 101.726562 530.882812 91.457031 529.648438 81.414062 C 528.050781 68.390625 529.546875 54.992188 533.980469 42.640625 C 536.046875 36.886719 539.460938 30.734375 545.394531 29.265625 C 553.777344 27.183594 560.96875 35.578125 564.457031 43.480469 C 575.425781 68.328125 572.988281 96.769531 570.347656 123.804688 C 569.167969 135.847656 567.992188 147.890625 566.8125 159.9375 C 565.113281 177.300781 564.929688 198.167969 579.257812 208.125 C 582.734375 210.542969 587.113281 212.058594 591.226562 211.058594 C 593.359375 210.539062 595.28125 209.386719 597.042969 208.078125 C 610.671875 197.964844 614.964844 179.234375 614.046875 162.289062 C 613.125 145.339844 608.039062 128.828125 607.097656 111.878906 C 606.152344 94.933594 610.390625 76.203125 623.972656 66.027344 C 636.511719 69.570312 633.035156 92.652344 645.4375 96.652344 C 652.953125 99.074219 660.25 92.074219 663.667969 84.953125 C 670.675781 70.359375 670.296875 52.804688 678.664062 38.945312 C 682.960938 31.824219 691.859375 25.675781 699.207031 29.574219 C 702.523438 31.335938 704.597656 34.726562 707.269531 37.367188 C 711.765625 41.8125 718.269531 43.820312 724.550781 43.347656 C 730.835938 43.820312 737.335938 41.8125 741.832031 37.367188 C 744.507812 34.726562 746.578125 31.335938 749.898438 29.574219 C 757.242188 25.675781 766.144531 31.824219 770.441406 38.945312 C 778.804688 52.804688 778.425781 70.359375 785.433594 84.953125 C 788.851562 92.074219 796.148438 99.074219 803.667969 96.652344 C 816.066406 92.652344 812.589844 69.570312 825.128906 66.027344 C 838.714844 76.203125 842.953125 94.933594 842.007812 111.878906 C 841.0625 128.828125 835.976562 145.339844 835.058594 162.289062 C 834.136719 179.234375 838.433594 197.964844 852.0625 208.078125 C 853.824219 209.386719 855.746094 210.539062 857.875 211.058594 C 861.992188 212.058594 866.367188 210.542969 869.84375 208.125 C 884.171875 198.167969 883.988281 177.300781 882.289062 159.9375 C 881.113281 147.890625 879.933594 135.847656 878.757812 123.804688 C 876.113281 96.769531 873.679688 68.328125 884.648438 43.480469 C 888.136719 35.578125 895.328125 27.183594 903.707031 29.265625 C 909.644531 30.734375 913.058594 36.886719 915.125 42.640625 C 919.558594 54.992188 921.054688 68.390625 919.453125 81.414062 C 918.222656 91.457031 915.199219 101.726562 917.882812 111.480469 C 920.5625 121.234375 932.390625 129.332031 940.808594 123.71875 C 947.257812 119.417969 947.683594 110.367188 949.054688 102.738281 C 950.421875 95.105469 956.082031 86.207031 963.613281 88.046875 C 969.621094 89.515625 975.195312 97.472656 980.132812 93.742188 C 981.191406 92.945312 981.847656 91.738281 982.40625 90.535156 C 992.964844 67.898438 979.097656 38.230469 992.929688 17.429688 C 997.777344 10.140625 1005.289062 5.269531 1012.566406 0.28125 Z M 763.570312 0.28125 " fill-opacity="1" fill-rule="nonzero"/></g><g clip-path="url(#a99911753a)"><path fill="#4b1870" d="M 1222.972656 0.28125 L 895.941406 0.28125 C 903.21875 5.269531 910.730469 10.140625 915.578125 17.429688 C 929.40625 38.230469 915.542969 67.898438 926.097656 90.535156 C 926.660156 91.738281 927.316406 92.945312 928.371094 93.742188 C 933.308594 97.472656 938.882812 89.515625 944.894531 88.046875 C 952.425781 86.207031 958.085938 95.105469 959.453125 102.738281 C 960.820312 110.367188 961.25 119.417969 967.699219 123.71875 C 976.113281 129.332031 987.945312 121.234375 990.625 111.480469 C 993.304688 101.726562 990.285156 91.457031 989.050781 81.414062 C 987.453125 68.390625 988.949219 54.992188 993.382812 42.640625 C 995.449219 36.886719 998.863281 30.734375 1004.796875 29.265625 C 1013.179688 27.183594 1020.371094 35.578125 1023.859375 43.480469 C 1034.828125 68.328125 1032.390625 96.769531 1029.75 123.804688 C 1028.570312 135.847656 1027.394531 147.890625 1026.214844 159.9375 C 1024.519531 177.300781 1024.332031 198.167969 1038.660156 208.125 C 1042.136719 210.542969 1046.515625 212.058594 1050.628906 211.058594 C 1052.761719 210.539062 1054.683594 209.386719 1056.445312 208.078125 C 1070.074219 197.964844 1074.371094 179.234375 1073.449219 162.289062 C 1072.53125 145.339844 1067.441406 128.828125 1066.5 111.878906 C 1065.554688 94.933594 1069.792969 76.203125 1083.378906 66.027344 C 1095.917969 69.570312 1092.4375 92.652344 1104.839844 96.652344 C 1112.355469 99.074219 1119.652344 92.074219 1123.074219 84.953125 C 1130.078125 70.359375 1129.699219 52.804688 1138.066406 38.945312 C 1142.363281 31.824219 1151.261719 25.675781 1158.609375 29.574219 C 1161.929688 31.335938 1164 34.726562 1166.671875 37.367188 C 1171.167969 41.8125 1177.671875 43.820312 1183.953125 43.347656 C 1190.238281 43.820312 1196.742188 41.8125 1201.234375 37.367188 C 1203.910156 34.726562 1205.980469 31.335938 1209.300781 29.574219 C 1216.644531 25.675781 1225.546875 31.824219 1229.84375 38.945312 C 1238.207031 52.804688 1237.828125 70.359375 1244.835938 84.953125 C 1248.253906 92.074219 1255.550781 99.074219 1263.070312 96.652344 C 1275.46875 92.652344 1271.992188 69.570312 1284.53125 66.027344 C 1298.117188 76.203125 1302.355469 94.933594 1301.410156 111.878906 C 1300.464844 128.828125 1295.378906 145.339844 1294.460938 162.289062 C 1293.539062 179.234375 1297.835938 197.964844 1311.464844 208.078125 C 1313.226562 209.386719 1315.148438 210.539062 1317.277344 211.058594 C 1321.394531 212.058594 1325.773438 210.542969 1329.25 208.125 C 1343.578125 198.167969 1343.390625 177.300781 1341.695312 159.9375 C 1340.515625 147.890625 1339.339844 135.847656 1338.160156 123.804688 C 1335.515625 96.769531 1333.082031 68.328125 1344.050781 43.480469 C 1347.539062 35.578125 1354.730469 27.183594 1363.113281 29.265625 C 1369.046875 30.734375 1372.460938 36.886719 1374.527344 42.640625 C 1378.960938 54.992188 1380.457031 68.390625 1378.859375 81.414062 C 1377.625 91.457031 1374.601562 101.726562 1377.285156 111.480469 C 1379.964844 121.234375 1391.796875 129.332031 1400.210938 123.71875 C 1406.660156 119.417969 1407.089844 110.367188 1408.457031 102.738281 C 1409.824219 95.105469 1415.484375 86.207031 1423.015625 88.046875 C 1429.027344 89.515625 1434.597656 97.472656 1439.535156 93.742188 C 1440.59375 92.945312 1441.25 91.738281 1441.808594 90.535156 C 1452.367188 67.898438 1438.503906 38.230469 1452.332031 17.429688 C 1457.179688 10.140625 1464.691406 5.269531 1471.96875 0.28125 Z M 1222.972656 0.28125 " fill-opacity="1" fill-rule="nonzero"/></g><g clip-path="url(#39dc665da6)"><path fill="#4b1870" d="M 1694.375 0.28125 L 1367.34375 0.28125 C 1374.621094 5.269531 1382.132812 10.140625 1386.980469 17.429688 C 1400.808594 38.230469 1386.945312 67.898438 1397.503906 90.535156 C 1398.0625 91.738281 1398.71875 92.945312 1399.777344 93.742188 C 1404.714844 97.472656 1410.285156 89.515625 1416.296875 88.046875 C 1423.828125 86.207031 1429.488281 95.105469 1430.855469 102.738281 C 1432.222656 110.367188 1432.652344 119.417969 1439.101562 123.71875 C 1447.515625 129.332031 1459.347656 121.234375 1462.027344 111.480469 C 1464.710938 101.726562 1461.6875 91.457031 1460.453125 81.414062 C 1458.855469 68.390625 1460.351562 54.992188 1464.785156 42.640625 C 1466.851562 36.886719 1470.265625 30.734375 1476.199219 29.265625 C 1484.582031 27.183594 1491.773438 35.578125 1495.261719 43.480469 C 1506.230469 68.328125 1503.796875 96.769531 1501.152344 123.804688 C 1499.972656 135.847656 1498.796875 147.890625 1497.617188 159.9375 C 1495.921875 177.300781 1495.734375 198.167969 1510.0625 208.125 C 1513.539062 210.542969 1517.917969 212.058594 1522.035156 211.058594 C 1524.164062 210.539062 1526.085938 209.386719 1527.847656 208.078125 C 1541.476562 197.964844 1545.773438 179.234375 1544.851562 162.289062 C 1543.933594 145.339844 1538.847656 128.828125 1537.902344 111.878906 C 1536.957031 94.933594 1541.195312 76.203125 1554.78125 66.027344 C 1567.320312 69.570312 1563.84375 92.652344 1576.242188 96.652344 C 1583.761719 99.074219 1591.058594 92.074219 1594.476562 84.953125 C 1601.484375 70.359375 1601.105469 52.804688 1609.46875 38.945312 C 1613.765625 31.824219 1622.667969 25.675781 1630.011719 29.574219 C 1633.332031 31.335938 1635.402344 34.726562 1638.078125 37.367188 C 1642.570312 41.8125 1649.074219 43.820312 1655.359375 43.347656 C 1661.640625 43.820312 1668.144531 41.8125 1672.640625 37.367188 C 1675.3125 34.726562 1677.382812 31.335938 1680.703125 29.574219 C 1688.050781 25.675781 1696.949219 31.824219 1701.246094 38.945312 C 1709.613281 52.804688 1709.234375 70.359375 1716.238281 84.953125 C 1719.660156 92.074219 1726.957031 99.074219 1734.472656 96.652344 C 1746.875 92.652344 1743.394531 69.570312 1755.933594 66.027344 C 1769.519531 76.203125 1773.757812 94.933594 1772.8125 111.878906 C 1771.871094 128.828125 1766.78125 145.339844 1765.863281 162.289062 C 1764.941406 179.234375 1769.238281 197.964844 1782.867188 208.078125 C 1784.628906 209.386719 1786.550781 210.539062 1788.683594 211.058594 C 1792.796875 212.058594 1797.175781 210.542969 1800.652344 208.125 C 1814.980469 198.167969 1814.792969 177.300781 1813.097656 159.9375 C 1811.917969 147.890625 1810.742188 135.847656 1809.5625 123.804688 C 1806.921875 96.769531 1804.484375 68.328125 1815.453125 43.480469 C 1818.941406 35.578125 1826.132812 27.183594 1834.515625 29.265625 C 1840.449219 30.734375 1843.863281 36.886719 1845.929688 42.640625 C 1850.363281 54.992188 1851.859375 68.390625 1850.261719 81.414062 C 1849.027344 91.457031 1846.007812 101.726562 1848.6875 111.480469 C 1851.367188 121.234375 1863.199219 129.332031 1871.613281 123.71875 C 1878.0625 119.417969 1878.492188 110.367188 1879.859375 102.738281 C 1881.226562 95.105469 1886.886719 86.207031 1894.417969 88.046875 C 1900.429688 89.515625 1906.003906 97.472656 1910.941406 93.742188 C 1911.996094 92.945312 1912.652344 91.738281 1913.214844 90.535156 C 1923.769531 67.898438 1909.90625 38.230469 1923.734375 17.429688 C 1928.582031 10.140625 1936.09375 5.269531 1943.371094 0.28125 Z M 1694.375 0.28125 " fill-opacity="1" fill-rule="nonzero"/></g></svg>